# xmcd CD database file generated by OrangeCD 5.0
#
# Track frame offsets:
#	150
#	19262
#	41265
#
# Disc length: 826 seconds
#
# Revision: 0
# Processed by: cddbd v1.4PL0 Copyright (c) Steve Scherf et al.
# Submitted via: OrangeCD 5.0
#
DISCID=19033803
DTITLE=Yothu Yindi - Tribal Voice
DYEAR=1992
DGENRE=Country
TTITLE0=Tribal Voice
TTITLE1=Treaty (K-Klass Remix)
TTITLE2=Djapana Sunset Dreaming (The Octopus Remix)
EXTD=
EXTT0=
EXTT1=
EXTT2=
PLAYORDER=
